<svg width="24" height="35" viewBox="0 0 24 35" fill="none" xmlns="http://www.w3.org/2000/svg">
  <path d="M23.1529 11.5765C23.1529 16.2466 20.3859 20.2729 16.4028 22.0998C18.0847 20.7144 19.1558 18.6127 19.1558 16.2466C19.1558 12.0000 15.7144 8.5586 11.4678 8.5586C7.2212 8.5586 3.7798 12.0000 3.7798 16.2466C3.7798 18.6127 4.8509 20.7144 6.5328 22.0998C2.5497 20.2729 -0.2173 16.2466 -0.2173 11.5765C-0.2173 5.1831 4.9545 0 11.4678 0C17.9811 0 23.1529 5.1831 23.1529 11.5765Z" fill="currentColor"/>
  <path d="M13.6227 13.6229C14.7529 12.4927 14.7529 10.6603 13.6227 9.53008C12.4925 8.39986 10.66 8.39986 9.5298 9.53008C8.3996 10.6603 8.3996 12.4927 9.5298 13.6229C10.66 14.7531 12.4925 14.7531 13.6227 13.6229Z" fill="currentColor"/>
</svg>
